<svg id="twittericon" xmlns="http://www.w3.org/2000/svg" viewBox="0 0 163 133"><title>twittericon</title><path id="twittericon-layer-1" d="M163,15.31,147.72,30.63v2.55a33,33,0,0,1-1.1,8.07c-.36,21.06-7.06,49-34.56,71.05C58,155.67,0,117.4,0,117.4c45.84,0,45.84-15.31,45.84-15.31-10.19,0-30.56-20.42-30.56-20.42,5.09,5.1,15.28,0,15.28,0C5.09,66.36,5.09,51,5.09,51c5.09,5.11,15.28,0,15.28,0C-5.1,30.63,10.19,5.1,10.19,5.1,15.28,30.63,81.5,40.83,81.5,40.83l.84-.42a60.7,60.7,0,0,1-.84-9.79C81.5,12.3,96.32,0,114.61,0a32.86,32.86,0,0,1,25,11.7l3-1.49L157.91,0,147.72,20.42Z" style="fill:#bc7d00;fill-opacity:0.9"/></svg>