<svg id="logo-the-yalow" xmlns="http://www.w3.org/2000/svg" viewBox="0 0 83 83"><title>logo-the-yalow-v</title><path id="shapebottom" d="M2.18,22.57,21,21.86,20.83,3.07l8,7.67L29,29.53l-18.78.71ZM14.35,34.21l18.78-.71L33,14.71l8,7.67.13,18.79-18.78.71ZM62.17,79.93,62,61.14l18.78-.71-8-7.67L54,53.48l.13,18.79ZM50,68.3l-.12-18.79,18.78-.71-8-7.67-18.78.71L42,60.63ZM60.43,2.19,61.14,21l18.79-.13-7.67,8L53.47,29,52.76,10.2ZM48.8,14.35l.71,18.78L68.29,33l-7.67,8-18.79.13-.71-18.78ZM3.07,62.17,21.86,62l.71,18.78,7.67-8L29.52,54l-18.79.13ZM14.71,50l18.79-.12.71,18.77,7.67-8-.71-18.78L22.37,42Z" style="fill:#f5c506;opacity:0.5;isolation:isolate"/><path id="shapetop" d="M0,55,13.08,41.5,0,28H11.1L24.18,41.5,11.09,55Zm16.83,0L29.91,41.5,16.83,28h11.1L41,41.5,27.93,55H16.83ZM83,55,69.92,41.5,83,28H71.9L58.82,41.5,71.9,55H83ZM66.16,55,53.08,41.5,66.16,28H55.06L42,41.5,55.07,55H66.16ZM28,0,41.5,13.08,55,0V11.1L41.5,24.18,28,11.1V0Zm0,16.83L41.5,29.92,55,16.84v11.1L41.5,41,28,27.93V16.84ZM28,83,41.5,69.92,55,83V71.9L41.5,58.83,28,71.91V83Zm0-16.83L41.5,53.09,55,66.17V55.07L41.5,42,28,55.07v11.1Z" style="fill:#f5c506"/></svg>